<?xml version="1.0" encoding="utf-8"?>
<!-- Generator: Adobe Illustrator 24.0.3, SVG Export Plug-In . SVG Version: 6.00 Build 0)  -->
<!DOCTYPE svg PUBLIC "-//W3C//DTD SVG 1.1//EN" "http://www.w3.org/Graphics/SVG/1.1/DTD/svg11.dtd" [
	<!ENTITY ns_extend "http://ns.adobe.com/Extensibility/1.0/">
	<!ENTITY ns_ai "http://ns.adobe.com/AdobeIllustrator/10.0/">
	<!ENTITY ns_graphs "http://ns.adobe.com/Graphs/1.0/">
	<!ENTITY ns_vars "http://ns.adobe.com/Variables/1.0/">
	<!ENTITY ns_imrep "http://ns.adobe.com/ImageReplacement/1.0/">
	<!ENTITY ns_sfw "http://ns.adobe.com/SaveForWeb/1.0/">
	<!ENTITY ns_custom "http://ns.adobe.com/GenericCustomNamespace/1.0/">
	<!ENTITY ns_adobe_xpath "http://ns.adobe.com/XPath/1.0/">
]>
<svg version="1.1" id="svg8" xmlns:x="&ns_extend;" xmlns:i="&ns_ai;" xmlns:graph="&ns_graphs;"
	 xmlns="http://www.w3.org/2000/svg" xmlns:xlink="http://www.w3.org/1999/xlink" x="0px" y="0px" viewBox="0 0 313.7 335.8"
	 style="enable-background:new 0 0 313.7 335.8;" xml:space="preserve">
<style type="text/css">
	.st0{fill:#37994F;}
	.st1{fill:#3CA656;}
	.st2{fill:url(#path825_1_);}
	.st3{fill:url(#path822_1_);}
	.st4{fill:url(#path819_1_);}
	.st5{fill:url(#path815_1_);}
	.st6{fill:#FF8A00;}
	.st7{opacity:0.3;enable-background:new    ;}
	.st8{fill:url(#path893_1_);}
	.st9{fill:url(#path895_1_);}
	.st10{fill:url(#path897_1_);}
	.st11{fill:url(#ellipse899_1_);}
	.st12{fill:url(#path915_1_);}
	.st13{fill:url(#path917_1_);}
	.st14{fill:url(#path919_1_);}
	.st15{fill:url(#ellipse921_1_);}
	.st16{opacity:0.263;enable-background:new    ;}
	.st17{fill:url(#path937_1_);}
	.st18{fill:url(#path939_1_);}
	.st19{fill:url(#path941_1_);}
	.st20{fill:url(#ellipse943_1_);}
	.st21{fill-rule:evenodd;clip-rule:evenodd;fill:#543511;}
	.st22{fill-rule:evenodd;clip-rule:evenodd;fill:#46A63C;}
</style>
<metadata  id="metadata5">
	<sfw  xmlns="&ns_sfw;">
		<slices></slices>
		<sliceSourceBounds  bottomLeftOrigin="true" height="335.8" width="313.7" x="0" y="161.8"></sliceSourceBounds>
	</sfw>
</metadata>
<g id="g13136" transform="matrix(0.60568485,-0.15424831,0.15424831,0.60568485,221.74254,88.411989)">
	<path id="path13129" class="st0" d="M66.1-15.3c-12.2,0-24.3,2.2-34.9,6.6C5.1,2.3,2.8,10.6-4.6,20.6l-6.1,1.5l0,5.5
		C7.2,46.4,48.9,59.4,79.6,41.2c32.2-19.1,21.4-29.4,35.6-43.8l0-5.5l-7.1,1.7C95.8-12.3,80.9-15.3,66.1-15.3z"/>
	<path id="path13115" class="st1" d="M115.2-8.2C101,6.2,111.8,16.5,79.6,35.6C48.9,53.9,7.1,40.9-10.7,22C3,8.6-0.7-0.8,31.2-14.3
		C57.4-25.2,92.6-22,115.2-8.2z"/>
</g>
<g id="g1064" transform="matrix(0.62501734,0,0,0.62501734,127.82541,114.30324)">
	
		<linearGradient id="path825_1_" gradientUnits="userSpaceOnUse" x1="1814.5326" y1="1923.943" x2="2203.1545" y2="1923.943" gradientTransform="matrix(0.293 0 0 0.293 -543.0438 -283.7655)">
		<stop  offset="0" style="stop-color:#FFDD00"/>
		<stop  offset="0.1343" style="stop-color:#F79F0A"/>
		<stop  offset="0.2538" style="stop-color:#FFE228"/>
		<stop  offset="0.6901" style="stop-color:#FFE225"/>
		<stop  offset="0.8673" style="stop-color:#F58F09"/>
		<stop  offset="1" style="stop-color:#FFDD00"/>
	</linearGradient>
	<path id="path825" class="st2" d="M134.2,205.6c-36.2,0-72,6.2-99.3,18c-13.6,5.9-25.7,13.5-34.6,22.9c-0.2,0.2-0.5,0.5-0.7,0.7
		l-13.7-0.1v32.8l0,0c0,12.8,5.6,24.1,14.4,33.5s20.9,17,34.6,22.9c27.3,11.8,63.1,18,99.3,18s72-6.2,99.3-18
		c13.6-5.9,25.7-13.5,34.6-22.9c8.8-9.4,14.4-20.7,14.4-33.5l0,0v-31.3l-12.5-0.1c-0.6-0.7-1.3-1.4-1.9-2.1
		c-8.8-9.4-20.9-17-34.6-22.9C206.2,211.8,170.3,205.6,134.2,205.6L134.2,205.6z"/>
	
		<linearGradient id="path822_1_" gradientUnits="userSpaceOnUse" x1="-1460.7382" y1="-112.13" x2="-1460.7382" y2="-59.401" gradientTransform="matrix(1.1073 0 0 1.1073 1751.7725 297.3651)">
		<stop  offset="0" style="stop-color:#FFDD00"/>
		<stop  offset="1" style="stop-color:#FFFFFF"/>
	</linearGradient>
	<path id="path822" class="st3" d="M134.2,174.3c-36.2,0-72,6.2-99.3,18c-13.7,5.9-25.8,13.5-34.6,22.9
		c-8.8,9.4-14.4,20.7-14.4,33.5c0,12.8,5.6,24.1,14.4,33.5c8.8,9.4,20.9,17,34.6,22.9c27.3,11.8,63.1,18,99.3,18s72-6.2,99.3-18
		c13.6-5.9,25.7-13.5,34.6-22.9c8.8-9.4,14.4-20.7,14.4-33.5c0-12.8-5.6-24.1-14.4-33.5c-8.8-9.4-20.9-17-34.6-22.9
		C206.2,180.5,170.3,174.3,134.2,174.3L134.2,174.3z"/>
	
		<linearGradient id="path819_1_" gradientUnits="userSpaceOnUse" x1="-1591.1405" y1="-43.9337" x2="-1489.2556" y2="-43.9337" gradientTransform="matrix(1.1073 0 0 1.1073 1751.7725 297.3651)">
		<stop  offset="0" style="stop-color:#F58F09"/>
		<stop  offset="0.5379" style="stop-color:#FFBF00"/>
		<stop  offset="1" style="stop-color:#F58F09;stop-opacity:0.91"/>
	</linearGradient>
	<path id="path819" class="st4" d="M134.2,178.2c-35.7,0-71.1,6.2-97.7,17.7s-46.7,29.5-46.7,52.8S9.9,290,36.5,301.5
		s62,17.7,97.7,17.7s71.1-6.2,97.7-17.7s46.7-29.5,46.7-52.8s-20.1-41.3-46.7-52.8S169.9,178.2,134.2,178.2z"/>
	
		<linearGradient id="path815_1_" gradientUnits="userSpaceOnUse" x1="-1460.7382" y1="-94.4618" x2="-1460.7382" y2="-55.26" gradientTransform="matrix(1.1073 0 0 1.1073 1751.7725 297.3651)">
		<stop  offset="0" style="stop-color:#FFC870"/>
		<stop  offset="1" style="stop-color:#FFDD00"/>
	</linearGradient>
	<ellipse id="path815" class="st5" cx="134.2" cy="248.7" rx="130.3" ry="56.3"/>
	<path id="ellipse876" class="st6" d="M259.3,233.1c1.6,3.5,2.4,7,2.5,10.5c0,30.5-57.1,55.2-127.6,55.2l0,0
		c-70.5,0-127.6-24.7-127.6-55.2l0,0c0-3.4,0.8-6.8,2.2-10.1c-3.2,4.9-4.9,10.1-5,15.2c0,31.1,58.3,56.3,130.3,56.3
		s130.3-25.2,130.3-56.3l0,0C264.4,243.4,262.7,238.2,259.3,233.1z"/>
	<path id="path891" class="st7" d="M134.2,174.3c-22.9,0-45.6,2.5-66.2,7.3c-6.4,2-12.5,4.2-18.2,6.7c-13.6,5.9-25.7,13.5-34.6,22.9
		c-0.2,0.2-0.5,0.5-0.7,0.7l-10.8-0.1c-1,0.9-1.9,1.8-2.8,2.8v30l0,0c0,12.8,5.6,24.1,14.4,33.5c8.8,9.4,20.9,17,34.6,22.9
		c27.3,11.8,63.1,18,99.3,18s72-6.2,99.3-18c13.4-5.8,25.3-13.2,34.1-22.4v-30l0,0c0-12.8-5.6-24.1-14.4-33.5
		c-8.8-9.4-20.9-17-34.6-22.9C206.2,180.5,170.3,174.3,134.2,174.3z"/>
	
		<linearGradient id="path893_1_" gradientUnits="userSpaceOnUse" x1="1814.5326" y1="1924.0952" x2="2203.1545" y2="1924.0952" gradientTransform="matrix(0.293 0 0 0.293 -528.1033 -323.4101)">
		<stop  offset="0" style="stop-color:#FFDD00"/>
		<stop  offset="0.1343" style="stop-color:#F79F0A"/>
		<stop  offset="0.2538" style="stop-color:#FFE228"/>
		<stop  offset="0.6901" style="stop-color:#FFE225"/>
		<stop  offset="0.8673" style="stop-color:#F58F09"/>
		<stop  offset="1" style="stop-color:#FFDD00"/>
	</linearGradient>
	<path id="path893" class="st8" d="M149.1,166c-36.2,0-72,6.2-99.3,18c-13.6,5.9-25.7,13.5-34.6,22.9c-0.2,0.2-0.5,0.5-0.7,0.7
		l-13.7-0.1v32.8l0,0c0,12.8,5.6,24.1,14.4,33.5c8.8,9.4,20.9,17,34.6,22.9c27.3,11.8,63.1,18,99.3,18s72-6.2,99.3-18
		c13.6-5.9,25.7-13.5,34.6-22.9c8.8-9.4,14.4-20.7,14.4-33.5l0,0V209l-12.5-0.1c-0.6-0.7-1.3-1.4-1.9-2.1
		c-8.8-9.4-20.9-17-34.6-22.9C221.1,172.2,185.3,166,149.1,166L149.1,166z"/>
	
		<linearGradient id="path895_1_" gradientUnits="userSpaceOnUse" x1="-1460.7747" y1="-112.13" x2="-1460.7747" y2="-59.401" gradientTransform="matrix(1.1073 0 0 1.1073 1766.7129 257.7206)">
		<stop  offset="0" style="stop-color:#FFDD00"/>
		<stop  offset="1" style="stop-color:#FFFFFF"/>
	</linearGradient>
	<path id="path895" class="st9" d="M149.1,134.7c-36.2,0-72,6.2-99.3,18c-13.6,5.9-25.7,13.5-34.6,22.9C6.4,185,0.8,196.3,0.8,209.1
		c0,12.8,5.6,24.1,14.4,33.5c8.8,9.4,20.9,17,34.6,22.9c27.3,11.8,63.1,18,99.3,18s72-6.2,99.3-18c13.6-5.9,25.7-13.5,34.6-22.9
		c8.8-9.4,14.4-20.7,14.4-33.5c0-12.8-5.6-24.1-14.4-33.5c-8.8-9.4-20.9-17-34.6-22.9C221.1,140.9,185.3,134.7,149.1,134.7z"/>
	
		<linearGradient id="path897_1_" gradientUnits="userSpaceOnUse" x1="-1591.177" y1="-43.8935" x2="-1489.2921" y2="-43.8935" gradientTransform="matrix(1.1073 0 0 1.1073 1766.7129 257.7206)">
		<stop  offset="0" style="stop-color:#F58F09"/>
		<stop  offset="0.5379" style="stop-color:#FFBF00"/>
		<stop  offset="1" style="stop-color:#F58F09;stop-opacity:0.91"/>
	</linearGradient>
	<path id="path897" class="st10" d="M149.1,138.6c-35.7,0-71.1,6.2-97.7,17.7c-26.6,11.5-46.7,29.5-46.7,52.8s20.1,41.3,46.7,52.8
		s62,17.7,97.7,17.7s71.1-6.2,97.7-17.7s46.7-29.5,46.7-52.8s-20.1-41.3-46.7-52.8C220.3,144.8,184.8,138.6,149.1,138.6z"/>
	
		<linearGradient id="ellipse899_1_" gradientUnits="userSpaceOnUse" x1="-1460.7747" y1="-94.4618" x2="-1460.7747" y2="-55.26" gradientTransform="matrix(1.1073 0 0 1.1073 1766.7129 257.7206)">
		<stop  offset="0" style="stop-color:#FFC870"/>
		<stop  offset="1" style="stop-color:#FFDD00"/>
	</linearGradient>
	<ellipse id="ellipse899" class="st11" cx="149.1" cy="209.1" rx="130.3" ry="56.3"/>
	<path id="path901" class="st6" d="M274.2,193.4c1.6,3.5,2.4,7,2.5,10.5c0,30.5-57.1,55.2-127.6,55.2l0,0
		c-70.5,0-127.6-24.7-127.6-55.2l0,0c0-3.4,0.8-6.8,2.2-10.1c-3.2,4.9-4.9,10.1-5,15.2c0,31.1,58.3,56.3,130.3,56.3
		s130.3-25.2,130.3-56.3l0,0C279.4,203.8,277.6,198.5,274.2,193.4L274.2,193.4z"/>
	<path id="path913" class="st7" d="M134.2,174.3c-36.2,0-72,6.2-99.3,18c-13.7,5.9-25.8,13.5-34.6,22.9c-3.4,3.6-6.3,7.5-8.6,11.7
		c2.3,4.2,5.2,8.1,8.6,11.7c8.8,9.4,20.9,17,34.6,22.9c27.3,11.8,63.1,18,99.3,18s72-6.2,99.3-18c13.6-5.9,25.7-13.5,34.6-22.9
		c8.8-9.4,14.4-20.7,14.4-33.5l0,0v-3l-9.1,6l-3,9.8c-0.8-0.9-1.5-1.8-2.4-2.7c-8.8-9.4-20.9-17-34.6-22.9
		C206.2,180.5,170.3,174.3,134.2,174.3L134.2,174.3z"/>
	
		<linearGradient id="path915_1_" gradientUnits="userSpaceOnUse" x1="1814.5326" y1="1923.9061" x2="2203.1545" y2="1923.9061" gradientTransform="matrix(0.293 0 0 0.293 -543.0438 -363.0547)">
		<stop  offset="0" style="stop-color:#FFDD00"/>
		<stop  offset="0.1343" style="stop-color:#F79F0A"/>
		<stop  offset="0.2538" style="stop-color:#FFE228"/>
		<stop  offset="0.6901" style="stop-color:#FFE225"/>
		<stop  offset="0.8673" style="stop-color:#F58F09"/>
		<stop  offset="1" style="stop-color:#FFDD00"/>
	</linearGradient>
	<path id="path915" class="st12" d="M134.2,126.3c-36.2,0-72,6.2-99.3,18c-13.7,5.9-25.8,13.5-34.6,22.9c-0.2,0.2-0.5,0.5-0.7,0.7
		l-13.7-0.1v32.8l0,0c0,12.8,5.6,24.1,14.4,33.5c8.8,9.4,20.9,17,34.6,22.9c27.3,11.8,63.1,18,99.3,18s72-6.2,99.3-18
		c13.6-5.9,25.7-13.5,34.6-22.9c8.8-9.4,14.4-20.7,14.4-33.5l0,0v-31.3l-12.5-0.1c-0.6-0.7-1.3-1.4-1.9-2.1
		c-8.8-9.4-20.9-17-34.6-22.9C206.2,132.5,170.3,126.3,134.2,126.3L134.2,126.3z"/>
	
		<linearGradient id="path917_1_" gradientUnits="userSpaceOnUse" x1="-1460.7382" y1="-112.13" x2="-1460.7382" y2="-59.401" gradientTransform="matrix(1.1073 0 0 1.1073 1751.7725 218.0759)">
		<stop  offset="0" style="stop-color:#FFDD00"/>
		<stop  offset="1" style="stop-color:#FFFFFF"/>
	</linearGradient>
	<path id="path917" class="st13" d="M134.2,95c-36.2,0-72,6.2-99.3,18c-13.6,5.9-25.7,13.5-34.6,22.9c-8.8,9.4-14.4,20.7-14.4,33.5
		s5.6,24.1,14.4,33.5c8.8,9.4,20.9,17,34.6,22.9c27.3,11.8,63.1,18,99.3,18s72-6.2,99.3-18c13.6-5.9,25.7-13.5,34.6-22.9
		c8.8-9.4,14.4-20.7,14.4-33.5s-5.6-24.1-14.4-33.5c-8.8-9.4-20.9-17-34.6-22.9C206.2,101.2,170.3,95,134.2,95z"/>
	
		<linearGradient id="path919_1_" gradientUnits="userSpaceOnUse" x1="-1591.1405" y1="-43.8531" x2="-1489.2556" y2="-43.8531" gradientTransform="matrix(1.1073 0 0 1.1073 1751.7725 218.0759)">
		<stop  offset="0" style="stop-color:#F58F09"/>
		<stop  offset="0.5379" style="stop-color:#FFBF00"/>
		<stop  offset="1" style="stop-color:#F58F09;stop-opacity:0.91"/>
	</linearGradient>
	<path id="path919" class="st14" d="M134.2,99c-35.7,0-71.1,6.2-97.7,17.7s-46.7,29.5-46.7,52.8s20.1,41.3,46.7,52.8
		c26.6,11.5,62,17.7,97.7,17.7s71.1-6.2,97.7-17.7c26.6-11.5,46.7-29.5,46.7-52.8s-20.1-41.3-46.7-52.8S169.9,99,134.2,99L134.2,99z
		"/>
	
		<linearGradient id="ellipse921_1_" gradientUnits="userSpaceOnUse" x1="-1460.7382" y1="-94.4618" x2="-1460.7382" y2="-55.26" gradientTransform="matrix(1.1073 0 0 1.1073 1751.7725 218.0759)">
		<stop  offset="0" style="stop-color:#FFC870"/>
		<stop  offset="1" style="stop-color:#FFDD00"/>
	</linearGradient>
	<ellipse id="ellipse921" class="st15" cx="134.2" cy="169.4" rx="130.3" ry="56.3"/>
	<path id="path923" class="st6" d="M259.3,153.8c1.6,3.5,2.4,7,2.5,10.5c0,30.5-57.1,55.2-127.6,55.2l0,0
		c-70.5,0-127.6-24.7-127.6-55.2l0,0c0-3.4,0.8-6.8,2.2-10.1c-3.2,4.9-4.9,10.1-5,15.2c0,31.1,58.3,56.3,130.3,56.3
		s130.3-25.2,130.3-56.3l0,0C264.4,164.1,262.7,158.9,259.3,153.8z"/>
</g>
<path id="path1066" class="st16" d="M139.5,190.2c-4.4,2.7-8.3,5.7-11.5,9.1c-5.3,5.6-8.7,12.4-9,20l0,0v0.4c0,0.2,0,0.4,0,0.6
	s0,0.4,0,0.6v19l0,0c0,5.4,1.6,10.5,4.4,15c0,0.1-0.1,0.2-0.1,0.2c-0.1,0.1-0.2,0.3-0.2,0.4c-0.1,0.2-0.3,0.5-0.4,0.7l0,0
	c-2.2,3.9-3.4,8.1-3.6,12.7l0,0v0.4c0,0.2,0,0.4,0,0.6s0,0.4,0,0.6v19l0,0c0,8,3.5,15.1,9,20.9c0.6,0.6,1.1,1.2,1.7,1.7
	c2.9-3.8,5.7-7.7,8.3-11.7c12.4-18.9,21.6-39.7,24.8-58c1.6-9.2,1.8-18.1,0-25.9c-1.9-7.8-5.8-14.7-12.5-19.1l0,0L139.5,190.2z"/>
<g id="g1002" transform="matrix(0.441954,-0.441954,0.441954,0.441954,88.607332,123.50849)">
	
		<linearGradient id="path937_1_" gradientUnits="userSpaceOnUse" x1="-156.1394" y1="3425.2148" x2="232.4824" y2="3425.2148" gradientTransform="matrix(0.293 0 0 0.293 -181.2767 -923.8791)">
		<stop  offset="0" style="stop-color:#FFDD00"/>
		<stop  offset="0.1343" style="stop-color:#F79F0A"/>
		<stop  offset="0.2538" style="stop-color:#FFE228"/>
		<stop  offset="0.6901" style="stop-color:#FFE225"/>
		<stop  offset="0.8673" style="stop-color:#F58F09"/>
		<stop  offset="1" style="stop-color:#FFDD00"/>
	</linearGradient>
	<path id="path937" class="st17" d="M-157.4,81.2c-36.2,0-72,6.2-99.3,18c-13.6,5.9-25.7,13.5-34.6,22.9c-0.2,0.2-0.5,0.5-0.7,0.7
		l-13.7-0.1v32.8l0,0c0,12.8,5.6,24.1,14.4,33.5s20.9,17,34.6,22.9c27.3,11.8,63.1,18,99.3,18s72-6.2,99.3-18
		c13.6-5.9,25.7-13.5,34.6-22.9c8.8-9.4,14.4-20.7,14.4-33.5l0,0v-31.3l-12.5-0.1c-0.6-0.7-1.3-1.4-1.9-2.1
		c-8.8-9.4-20.9-17-34.6-22.9C-85.3,87.4-121.2,81.2-157.4,81.2L-157.4,81.2z"/>
	
		<linearGradient id="path939_1_" gradientUnits="userSpaceOnUse" x1="-2109.9155" y1="-292.259" x2="-2109.9155" y2="-239.53" gradientTransform="matrix(1.1074 0 0 1.1074 2216.8623 410.1574)">
		<stop  offset="0" style="stop-color:#FFDD00"/>
		<stop  offset="1" style="stop-color:#FFFFFF"/>
	</linearGradient>
	<path id="path939" class="st18" d="M-157.4,49.9c-36.2,0-72,6.2-99.3,18c-13.6,5.9-25.7,13.5-34.6,22.9
		c-8.8,9.4-14.4,20.7-14.4,33.5s5.6,24.1,14.4,33.5c8.8,9.4,20.9,17,34.6,22.9c27.3,11.8,63.1,18,99.3,18s72-6.2,99.3-18
		c13.6-5.9,25.7-13.5,34.6-22.9c8.8-9.4,14.4-20.7,14.4-33.5s-5.6-24.1-14.4-33.5c-8.8-9.4-20.9-17-34.6-22.9
		C-85.3,56.1-121.2,49.9-157.4,49.9L-157.4,49.9z"/>
	
		<linearGradient id="path941_1_" gradientUnits="userSpaceOnUse" x1="-2209.2334" y1="-323.3353" x2="-2107.3486" y2="-323.3353" gradientTransform="matrix(1.1074 0 0 1.1074 2216.8623 410.1574)">
		<stop  offset="0" style="stop-color:#F58F09"/>
		<stop  offset="0.5379" style="stop-color:#FFBF00"/>
		<stop  offset="1" style="stop-color:#F58F09;stop-opacity:0.91"/>
	</linearGradient>
	<path id="path941" class="st19" d="M-157.4,53.8c-35.7,0-71.1,6.2-97.7,17.7s-46.7,29.5-46.7,52.8s20.1,41.3,46.7,52.8
		s62,17.7,97.7,17.7s71.1-6.2,97.7-17.7S-13,147.6-13,124.3S-33.1,83-59.7,71.5C-86.2,60-121.6,53.8-157.4,53.8L-157.4,53.8z"/>
	
		<linearGradient id="ellipse943_1_" gradientUnits="userSpaceOnUse" x1="-2118.728" y1="-283.4022" x2="-2118.728" y2="-244.2005" gradientTransform="matrix(1.1074 0 0 1.1074 2216.8623 410.1574)">
		<stop  offset="0" style="stop-color:#FFC870"/>
		<stop  offset="1" style="stop-color:#FFDD00"/>
	</linearGradient>
	<path id="ellipse943" class="st20" d="M-157.4,68c72,0,130.3,25.2,130.3,56.3s-58.3,56.3-130.3,56.3s-130.2-25.2-130.2-56.3
		S-229.3,68-157.4,68z"/>
	<path id="path945" class="st6" d="M-32.2,108.7c1.6,3.5,2.4,7,2.5,10.5c0,30.5-57.1,55.2-127.6,55.2l0,0
		c-70.5,0-127.6-24.7-127.6-55.2l0,0c0-3.4,0.8-6.8,2.2-10.1c-3.2,4.9-4.9,10.1-5,15.2c0,31.1,58.3,56.3,130.3,56.3
		s130.3-25.2,130.3-56.3l0,0C-27.1,119-28.8,113.7-32.2,108.7L-32.2,108.7z"/>
</g>
<path id="path13113" class="st21" d="M211.5,35c-5.3,64.1-2.4,130.8-3.5,188.8c6.8,5.8,13.7,5.2,20.5,0
	c-1.6-62.8,0.8-125.8-4.8-188.3C223.3,31.4,211.8,30.9,211.5,35L211.5,35z"/>
<g id="g13142" transform="matrix(-0.61608363,-0.10529783,-0.10529783,0.61608363,144.30706,105.07178)">
	<path id="path13138" class="st0" d="M-56.9-0.8c-12.2,0-24.3,2.2-34.9,6.6c-26.1,11-28.4,19.3-35.8,29.3l-6.1,1.5v5.5
		c17.9,18.8,59.6,31.8,90.3,13.6C-11.2,36.6-22,26.3-7.8,11.9l0-5.5l-7.1,1.7C-27.2,2.3-42.1-0.8-56.9-0.8z"/>
	<path id="path13140" class="st1" d="M-7.8,6.4C-22,20.8-11.2,31.1-43.4,50.2c-30.7,18.3-72.5,5.3-90.3-13.6
		c13.7-13.4,10-22.8,41.9-36.3C-65.6-10.7-30.4-7.5-7.8,6.4z"/>
</g>
<path id="path13357" class="st22" d="M223.2,45.6c-7.2-10.3-13.1-21.9-30.5-25.7c-8.5-1.9-19.9-0.6-21.1,9.9
	c-1.2,10.4,16.2,22.9,25.3,23.1C210.9,53.2,223.2,45.6,223.2,45.6L223.2,45.6z"/>
<g id="g13369" transform="matrix(0.52590603,-0.16913451,0.16913451,0.52590603,212.49577,69.722725)">
	<path id="path13365" class="st0" d="M95.4-91c-12.2,0-24.3,2.2-34.9,6.6c-26.1,11-28.4,19.3-35.8,29.3l-6.1,1.5l0,5.5
		c17.9,18.8,59.6,31.8,90.3,13.6c32.1-19.1,21.3-29.4,35.5-43.8v-5.5l-7.1,1.7C125-87.9,110.1-91,95.4-91z"/>
	<path id="path13367" class="st1" d="M144.4-83.9C130.2-69.5,141-59.1,108.9-40c-30.7,18.3-72.5,5.3-90.3-13.6
		C32.2-67,28.5-76.4,60.5-89.9C86.6-100.9,121.8-97.7,144.4-83.9z"/>
</g>
</svg>
