<svg id="Layer_1" data-name="Layer 1" xmlns="http://www.w3.org/2000/svg" viewBox="0 0 322.95 152.49">
  <defs>
    <style>
      .cls-1 {
        fill: #644219;
      }

      .cls-2 {
        fill: #9ab22f;
      }

      .cls-3, .cls-4 {
        fill: none;
      }

      .cls-3 {
        stroke: #b2c84e;
        stroke-miterlimit: 10;
      }

      .cls-4 {
        stroke: #f4f4e9;
        stroke-linecap: round;
        stroke-linejoin: round;
      }

      .cls-5 {
        fill: #4b2f18;
      }

      .cls-6 {
        fill: #e75f9e;
      }

      .cls-7 {
        fill: #f8ebd7;
      }

      .cls-8 {
        fill: #f08bb7;
      }

      .cls-9 {
        fill: #784f27;
      }

      .cls-10 {
        fill: #fff;
      }

      .cls-11 {
        fill: #974d98;
      }

      .cls-12 {
        fill: #f7c563;
      }

      .cls-13 {
        fill: #e9408f;
      }
    </style>
  </defs>
  <title>cartoon owls on branch</title>
  <path class="cls-1" d="M1,90.58l14.34,0,34.33.05h5l14,0,67.67.1,94,.13,12.66-15-3-19,2.34-2.66,4,17.66,14.33-21.66,2-1-.33,2.66-11,21,15.33-5.66-2,3L252,77.58l-8,13,48-.67v3.67l-152.67,8,9,12,14.34,3.33-.34,1.67-11.66-.67,7.66,9-3,1-14.66-14.33-4,9.67-1.67-.34,3.33-12-8.66-8.33L77.14,105,39,106.78l-17.82.82L0,108.58l1-18Z"/>
  <path class="cls-2" d="M161.46,143.13c-4.32-4.37-6.64-14.76-4.88-16.5s9.06,1.88,13.38,6.25,4.62,15,4.62,15S165.78,147.5,161.46,143.13Z"/>
  <path class="cls-3" d="M156.59,126.63s13.75,19,18,21.25"/>
  <path class="cls-3" d="M173.84,141.87s-6-2.88-6.5,4.12"/>
  <polyline class="cls-3" points="162.59 143.87 165.09 138.37 171.46 135.63"/>
  <polyline class="cls-3" points="158.59 139 161.72 133.75 167.46 130.75"/>
  <path class="cls-3" d="M156.22,131.75a6.19,6.19,0,0,0,4.37-4.75"/>
  <path class="cls-2" d="M278.36,33.1C276,36.81,269,40,267.5,39.07s-.07-6.66,2.34-10.37,9.84-5.56,9.84-5.56S280.77,29.39,278.36,33.1Z"/>
  <path class="cls-3" d="M267.5,39.07s11.25-12.6,12.18-15.93"/>
  <path class="cls-3" d="M275.58,24.59s-1.1,4.66,3.9,3.94"/>
  <polyline class="cls-3" points="278.72 32.19 274.46 31.28 271.55 27.22"/>
  <polyline class="cls-3" points="275.9 35.76 271.73 34.37 268.73 30.78"/>
  <path class="cls-3" d="M271.16,38.54a4.5,4.5,0,0,0-4-2.35"/>
  <path class="cls-2" d="M271.67,82.13C268.52,79,266.75,71.57,268,70.29s6.54,1.27,9.69,4.38,3.47,10.76,3.47,10.76S274.82,85.24,271.67,82.13Z"/>
  <path class="cls-3" d="M268,70.29s10.08,13.55,13.16,15.13"/>
  <path class="cls-3" d="M280.57,81.11s-4.35-2-4.64,3"/>
  <polyline class="cls-3" points="272.49 82.66 274.24 78.67 278.8 76.63"/>
  <polyline class="cls-3" points="269.56 79.18 271.76 75.37 275.88 73.16"/>
  <path class="cls-3" d="M267.78,74a4.47,4.47,0,0,0,3.1-3.46"/>
  <path class="cls-2" d="M174.39,132.24c-5.59-2.56-11.43-11.45-10.4-13.71s9.14-1.44,14.72,1.12S188.34,132,188.34,132s-8.37,2.76-14,.2Z"/>
  <path class="cls-3" d="M164,118.53s19.58,12.91,24.35,13.51"/>
  <path class="cls-3" d="M185.53,126.7s-6.63-.57-4.62,6.16"/>
  <polyline class="cls-3" points="175.71 132.55 176.1 126.52 181.1 121.69"/>
  <polyline class="cls-3" points="170.25 129.4 171.31 123.39 175.63 118.55"/>
  <path class="cls-3" d="M165.46,123.46a6.2,6.2,0,0,0,2.41-6"/>
  <path class="cls-2" d="M123.25,121.64c3.69-2.14,11.06-1.88,11.92-.39s-2.84,5.75-6.53,7.88-10.87.49-10.87.49S119.56,123.78,123.25,121.64Z"/>
  <path class="cls-3" d="M135.17,121.25s-15.15,5.91-17.41,8.37"/>
  <path class="cls-3" d="M121.92,130.16s3-3.52-1.63-5.08"/>
  <polyline class="cls-3" points="122.55 122.26 125.8 124.9 126.54 129.66"/>
  <polyline class="cls-3" points="126.52 120.43 129.5 123.44 130.5 127.83"/>
  <path class="cls-3" d="M131.8,120.1a4.3,4.3,0,0,0,2.42,3.77"/>
  <path class="cls-2" d="M175,113.8c-3.27,3.54-10.59,5.69-11.69,4.35s1.82-7.19,5.1-10.73S179,103.3,179,103.3s-.77,7-4,10.5Z"/>
  <path class="cls-3" d="M163.26,118.15S177.19,106.72,179,103.3"/>
  <path class="cls-3" d="M174.81,104.08s-2.34,4.82,2.47,5"/>
  <polyline class="cls-3" points="175.54 112.89 171.88 111.09 170.35 106.15"/>
  <polyline class="cls-3" points="171.94 116.19 168.49 113.89 166.75 109.45"/>
  <path class="cls-3" d="M166.78,118.29a4,4,0,0,0-3-3.3"/>
  <path class="cls-2" d="M282.86,66.32c-5.09,3.44-15.73,3.81-17.12,1.76s3.51-8.56,8.6-12,15.6-1.79,15.6-1.79S288,62.88,282.86,66.32Z"/>
  <path class="cls-3" d="M265.75,68.08s21.2-10,24.19-13.79"/>
  <path class="cls-3" d="M283.91,53.93s-3.93,5.37,2.86,7.14"/>
  <polyline class="cls-3" points="283.81 65.35 278.86 61.88 277.33 55.11"/>
  <polyline class="cls-3" points="278.28 68.39 273.69 64.35 271.8 58.15"/>
  <path class="cls-3" d="M270.72,69.39a6.21,6.21,0,0,0-3.87-5.17"/>
  <path class="cls-2" d="M226.89,61.66c4.41.27,11.15-3.39,11.26-5.17s-5.31-4-9.73-4.3-10.33,4.6-10.33,4.6S222.47,61.39,226.89,61.66Z"/>
  <path class="cls-3" d="M238.15,56.48s-16.82,1.55-20.06.31"/>
  <path class="cls-3" d="M221.71,54.35s4.4,1.9.84,5.48"/>
  <polyline class="cls-3" points="225.95 61.4 227.75 57.44 226.22 52.68"/>
  <polyline class="cls-3" points="230.49 61.26 231.86 57.08 230.76 52.54"/>
  <path class="cls-3" d="M235.55,59.11a4.47,4.47,0,0,1,.5-4.62"/>
  <path class="cls-2" d="M231.18,42.77C232,48.86,238.84,57,241.3,56.69s4-8.33,3.18-14.42-9.08-12.8-9.08-12.8S230.34,36.68,231.18,42.77Z"/>
  <path class="cls-3" d="M241.3,56.69s-6.7-22.48-5.9-27.22"/>
  <path class="cls-3" d="M239.71,33.72s-1.38,6.51-7.23,2.64"/>
  <polyline class="cls-3" points="231.28 41.42 237.16 42.79 243.22 39.41"/>
  <polyline class="cls-3" points="232.7 47.56 238.77 48.28 244.65 45.55"/>
  <path class="cls-3" d="M237,53.86a6.21,6.21,0,0,1,6.43-.58"/>
  <path class="cls-2" d="M278.75,51.78c-5.71,2.3-16.18.41-17.1-1.89s5.23-7.62,10.93-9.91,15.63,1.54,15.63,1.54S284.45,49.49,278.75,51.78Z"/>
  <path class="cls-3" d="M261.65,49.89s22.84-5.32,26.56-8.37"/>
  <path class="cls-3" d="M282.39,39.89s-5,4.42,1.29,7.59"/>
  <polyline class="cls-3" points="279.88 51.04 275.78 46.6 275.71 39.66"/>
  <polyline class="cls-3" points="273.84 52.84 270.21 47.92 269.66 41.46"/>
  <path class="cls-3" d="M266.23,52.22a6.21,6.21,0,0,0-2.69-5.87"/>
  <path class="cls-2" d="M265.76,38.69c.32,4.81-3.16,11.59-4.89,11.48s-4-6.28-4.28-11.09,4.34-10.55,4.34-10.55S265.44,33.88,265.76,38.69Z"/>
  <path class="cls-3" d="M260.87,50.17s1.29-18,.05-21.64"/>
  <path class="cls-3" d="M258.61,32.11s1.89,5,5.32,1.64"/>
  <polyline class="cls-3" points="265.5 37.64 261.68 39.05 257.04 36.76"/>
  <polyline class="cls-3" points="265.42 42.52 261.38 43.44 256.96 41.65"/>
  <path class="cls-3" d="M263.4,47.71s-2.33-1.67-4.48-.08"/>
  <path class="cls-2" d="M304.6,112.52c-6.91-4.17-13.2-16.65-11.52-19.43s12.13-.52,19,3.65,10.71,17.6,10.71,17.6-11.33,2.35-18.23-1.82Z"/>
  <path class="cls-3" d="M293.09,93.09s23.61,19.76,29.74,21.26"/>
  <path class="cls-3" d="M320,107s-8.56-1.73-6.95,7.34"/>
  <polyline class="cls-3" points="306.27 113.11 307.69 105.31 314.92 99.76"/>
  <polyline class="cls-3" points="299.62 108.19 301.9 100.51 308.26 94.84"/>
  <path class="cls-3" d="M294.26,99.73a8.14,8.14,0,0,0,4-7.45"/>
  <path class="cls-2" d="M308.08,88.55c-4.8,4.13-14.66,5.84-15.9,3.94s3.46-9.12,8.25-13.25,14.49-3.77,14.49-3.77-2.05,9-6.84,13.08Z"/>
  <path class="cls-3" d="M292.19,92.49s19.87-12.83,22.74-17"/>
  <path class="cls-3" d="M309.34,75.85s-3.77,5.94,2.48,6.89"/>
  <polyline class="cls-3" points="308.98 87.45 304.48 84.56 303.22 77.88"/>
  <polyline class="cls-3" points="303.79 91.22 299.64 87.71 298.03 81.65"/>
  <path class="cls-3" d="M296.76,93.19s-.09-3.75-3.46-4.76"/>
  <path class="cls-2" d="M143.84,133.65c.75,7-3.79,18.38-6.27,18.82s-6.07-7.94-6.83-15,5.55-17.24,5.55-17.24S143.08,126.6,143.84,133.65Z"/>
  <path class="cls-3" d="M137.57,152.47s.72-27.22-1.28-32.23"/>
  <path class="cls-3" d="M133.19,126.39s3,6.79,7.72.56"/>
  <polyline class="cls-3" points="143.4 132.18 138.02 135.64 131.24 133.88"/>
  <polyline class="cls-3" points="143.59 139.48 137.86 142.28 131.43 141.18"/>
  <path class="cls-3" d="M141,147.91a5.66,5.66,0,0,0-6.42,1.48"/>
  <path class="cls-4" d="M89.67,61.92s1.16,2.71,3.54,2.52a4.38,4.38,0,0,0,4-2.85"/>
  <path class="cls-4" d="M99.55,61.92s1.16,2.71,3.54,2.52a4.38,4.38,0,0,0,4-2.85"/>
  <path class="cls-4" d="M109.42,61.92s1.16,2.71,3.54,2.52a4.38,4.38,0,0,0,4-2.85"/>
  <path class="cls-4" d="M89.67,74.35s1.16,2.71,3.54,2.52a4.38,4.38,0,0,0,4-2.85"/>
  <path class="cls-4" d="M99.55,74.35s1.16,2.71,3.54,2.52a4.38,4.38,0,0,0,4-2.85"/>
  <path class="cls-4" d="M109.42,74.35s1.16,2.71,3.54,2.52a4.38,4.38,0,0,0,4-2.85"/>
  <path class="cls-4" d="M94.86,79.54S96,82.25,98.4,82.06a4.38,4.38,0,0,0,4-2.85"/>
  <path class="cls-4" d="M104.74,79.54s1.16,2.71,3.54,2.52a4.38,4.38,0,0,0,4-2.85"/>
  <path class="cls-4" d="M114.36,68.23s1.16,2.71,3.54,2.52a4.38,4.38,0,0,0,4-2.85"/>
  <path class="cls-4" d="M85,68.48s1.17,2.71,3.55,2.52a4.36,4.36,0,0,0,4-2.85"/>
  <path class="cls-4" d="M94.86,68.48S96,71.19,98.4,71a4.38,4.38,0,0,0,4-2.85"/>
  <path class="cls-4" d="M104.74,68.48s1.16,2.71,3.54,2.52a4.38,4.38,0,0,0,4-2.85"/>
  <ellipse class="cls-5" cx="86.67" cy="91.17" rx="1.67" ry="4.58"/>
  <ellipse class="cls-5" cx="89.51" cy="91.17" rx="1.67" ry="4.58"/>
  <ellipse class="cls-5" cx="92.84" cy="91.17" rx="1.67" ry="4.58"/>
  <ellipse class="cls-5" cx="114.17" cy="91.17" rx="1.67" ry="4.58"/>
  <ellipse class="cls-5" cx="117.01" cy="91.17" rx="1.67" ry="4.58"/>
  <ellipse class="cls-5" cx="120.34" cy="91.17" rx="1.67" ry="4.58"/>
  <polygon class="cls-6" points="126.84 91.25 130.59 33.5 131.84 13.75 135.84 3 122.59 14.75 84.84 14.75 70.09 0 74.59 17.75 75.34 40 79.09 90.5 126.84 91.25"/>
  <circle class="cls-7" cx="87.44" cy="29.4" r="12.1"/>
  <circle class="cls-5" cx="87.29" cy="29.64" r="9.3"/>
  <circle class="cls-7" cx="118.14" cy="29.4" r="12.1"/>
  <path class="cls-8" d="M125.09,68.25c0,9.94-11.83,19.5-22.25,19.5S82.59,78.44,82.59,68.5s10-18,20.37-18S125.09,58.31,125.09,68.25Z"/>
  <path class="cls-9" d="M83.34,64.13c0,12.91-3.19,23.38-7.13,23.38S69.09,77,69.09,64.13s3-21,6.94-21S83.34,51.22,83.34,64.13Z"/>
  <circle class="cls-10" cx="90.2" cy="26.15" r="3.15"/>
  <circle class="cls-5" cx="118.58" cy="29.64" r="9.3"/>
  <circle class="cls-10" cx="115.97" cy="27.14" r="3.15"/>
  <path class="cls-4" d="M89.67,61.42s1.16,2.71,3.54,2.52a4.38,4.38,0,0,0,4-2.85"/>
  <path class="cls-4" d="M99.55,61.42s1.16,2.71,3.54,2.52a4.38,4.38,0,0,0,4-2.85"/>
  <path class="cls-4" d="M109.42,61.42s1.16,2.71,3.54,2.52a4.38,4.38,0,0,0,4-2.85"/>
  <path class="cls-4" d="M89.67,73.85s1.16,2.71,3.54,2.52a4.38,4.38,0,0,0,4-2.85"/>
  <path class="cls-4" d="M99.55,73.85s1.16,2.71,3.54,2.52a4.38,4.38,0,0,0,4-2.85"/>
  <path class="cls-4" d="M109.42,73.85s1.16,2.71,3.54,2.52a4.38,4.38,0,0,0,4-2.85"/>
  <path class="cls-4" d="M94.86,79S96,81.75,98.4,81.56a4.38,4.38,0,0,0,4-2.85"/>
  <path class="cls-4" d="M104.74,79s1.16,2.71,3.54,2.52a4.38,4.38,0,0,0,4-2.85"/>
  <path class="cls-4" d="M114.36,67.73s1.16,2.71,3.54,2.52a4.38,4.38,0,0,0,4-2.85"/>
  <path class="cls-4" d="M85,68s1.17,2.71,3.54,2.52a4.38,4.38,0,0,0,4-2.85"/>
  <path class="cls-4" d="M94.86,68S96,70.69,98.4,70.5a4.38,4.38,0,0,0,4-2.85"/>
  <path class="cls-4" d="M104.74,68s1.16,2.71,3.54,2.52a4.38,4.38,0,0,0,4-2.85"/>
  <ellipse class="cls-5" cx="86.67" cy="90.67" rx="1.67" ry="4.58"/>
  <ellipse class="cls-5" cx="89.51" cy="90.67" rx="1.67" ry="4.58"/>
  <ellipse class="cls-5" cx="92.84" cy="90.67" rx="1.67" ry="4.58"/>
  <ellipse class="cls-5" cx="114.17" cy="90.67" rx="1.67" ry="4.58"/>
  <ellipse class="cls-5" cx="117.01" cy="90.67" rx="1.67" ry="4.58"/>
  <ellipse class="cls-5" cx="120.34" cy="90.67" rx="1.67" ry="4.58"/>
  <polygon class="cls-11" points="200.84 91.25 204.59 33.5 205.84 13.75 209.84 3 196.59 14.75 158.84 14.75 144.09 0 148.59 17.75 149.34 40 153.09 90.5 200.84 91.25"/>
  <polygon class="cls-12" points="171.09 40.5 176.84 49.08 183.09 40.5 171.09 40.5"/>
  <circle class="cls-7" cx="162.14" cy="29.53" r="11.72"/>
  <circle class="cls-5" cx="162" cy="29.77" r="9"/>
  <circle class="cls-7" cx="191.87" cy="29.53" r="11.72"/>
  <path class="cls-13" d="M199.09,68.25c0,9.94-11.83,19.5-22.25,19.5s-20.25-9.31-20.25-19.25,9.95-18,20.37-18S199.09,58.31,199.09,68.25Z"/>
  <ellipse class="cls-9" cx="150.22" cy="64.13" rx="7.13" ry="23.38"/>
  <ellipse class="cls-9" cx="204.46" cy="64.13" rx="7.13" ry="23.38"/>
  <circle class="cls-10" cx="164.81" cy="26.39" r="3.05"/>
  <circle class="cls-5" cx="192.3" cy="29.77" r="9"/>
  <circle class="cls-10" cx="189.78" cy="27.34" r="3.05"/>
  <path class="cls-4" d="M163.67,61.42s1.16,2.71,3.54,2.52a4.38,4.38,0,0,0,4-2.85"/>
  <path class="cls-4" d="M173.55,61.42s1.16,2.71,3.54,2.52a4.38,4.38,0,0,0,4-2.85"/>
  <path class="cls-4" d="M183.42,61.42s1.16,2.71,3.54,2.52a4.38,4.38,0,0,0,4-2.85"/>
  <path class="cls-4" d="M163.67,73.85s1.16,2.71,3.54,2.52a4.38,4.38,0,0,0,4-2.85"/>
  <path class="cls-4" d="M173.55,73.85s1.16,2.71,3.54,2.52a4.38,4.38,0,0,0,4-2.85"/>
  <path class="cls-4" d="M183.42,73.85s1.16,2.71,3.54,2.52a4.38,4.38,0,0,0,4-2.85"/>
  <path class="cls-4" d="M168.86,79s1.16,2.71,3.54,2.52a4.38,4.38,0,0,0,4-2.85"/>
  <path class="cls-4" d="M178.74,79s1.16,2.71,3.54,2.52a4.38,4.38,0,0,0,4-2.85"/>
  <path class="cls-4" d="M188.36,67.73s1.16,2.71,3.54,2.52a4.38,4.38,0,0,0,4-2.85"/>
  <path class="cls-4" d="M159,68s1.16,2.71,3.54,2.52a4.38,4.38,0,0,0,4-2.85"/>
  <path class="cls-4" d="M168.86,68s1.16,2.71,3.54,2.52a4.38,4.38,0,0,0,4-2.85"/>
  <path class="cls-4" d="M178.74,68s1.16,2.71,3.54,2.52a4.38,4.38,0,0,0,4-2.85"/>
  <ellipse class="cls-5" cx="160.67" cy="90.67" rx="1.67" ry="4.58"/>
  <ellipse class="cls-5" cx="163.51" cy="90.67" rx="1.67" ry="4.58"/>
  <ellipse class="cls-5" cx="166.84" cy="90.67" rx="1.67" ry="4.58"/>
  <ellipse class="cls-5" cx="188.17" cy="90.67" rx="1.67" ry="4.58"/>
  <ellipse class="cls-5" cx="191.01" cy="90.67" rx="1.67" ry="4.58"/>
  <ellipse class="cls-5" cx="194.34" cy="90.67" rx="1.67" ry="4.58"/>
  <ellipse class="cls-9" cx="130.46" cy="64.63" rx="7.13" ry="23.38"/>
  <polygon class="cls-12" points="97.09 41 102.84 49.58 109.09 41 97.09 41"/>
</svg>
